<?xml version="1.0" encoding="UTF-8"?>
<svg width="12px" height="15px" viewBox="0 0 12 15" version="1.1" xmlns="http://www.w3.org/2000/svg" xmlns:xlink="http://www.w3.org/1999/xlink">
    <!-- Generator: Sketch 55.2 (78181) - https://sketchapp.com -->
    <title>形状</title>
    <desc>Created with Sketch.</desc>
    <g id="页面1" stroke="none" stroke-width="1" fill="none" fill-rule="evenodd">
        <g id="查询条件2" transform="translate(-20.000000, -124.000000)" fill="#09C688" fill-rule="nonzero">
            <g id="编组-6" transform="translate(20.000000, 120.000000)">
                <g id="编组-4">
                    <g id="zuobiaofill" transform="translate(0.000000, 4.000000)">
                        <path d="M5.66123418,0.0158128037 C2.54866033,0.0158128037 0.0155550352,2.54891812 0.0155550352,5.66149195 C0.0155550352,8.6664502 5.07624691,14.0030795 5.29147807,14.2293481 C5.38805616,14.331445 5.52326547,14.3893918 5.66399355,14.3893918 C5.66675293,14.3893918 5.67227167,14.3893918 5.67503104,14.3893918 C5.81851849,14.3893918 5.95648718,14.3231668 6.0503059,14.2127919 L7.80250837,12.206727 C10.13142,9.3562937 11.3096727,7.15431327 11.3096727,5.66425132 C11.3096727,2.54891812 8.7765674,0.0158128037 5.66123418,0.0158128037 Z M5.66123418,8.22770975 C4.24291596,8.22770975 3.09501638,7.07981017 3.09501638,5.66149195 C3.09501638,4.24317372 4.24291596,3.09527415 5.66123418,3.09527415 C7.07955241,3.09527415 8.22745198,4.24317372 8.22745198,5.66149195 C8.22745198,7.07981017 7.07955241,8.22770975 5.66123418,8.22770975 Z" id="形状"></path>
                    </g>
                </g>
            </g>
        </g>
    </g>
</svg>